nColumns=28
nRows=59
DataType=double
version=3
OpenSimVersion=4.1
endheader
time	ground_force_1_vx	ground_force_1_vy	ground_force_1_vz	ground_force_1_px	ground_force_1_py	ground_force_1_pz	ground_force_1_mx	ground_force_1_my	ground_force_1_mz	ground_force_2_vx	ground_force_2_vy	ground_force_2_vz	ground_force_2_px	ground_force_2_py	ground_force_2_pz	ground_force_2_mx	ground_force_2_my	ground_force_2_mz	ground_force_3_vx	ground_force_3_vy	ground_force_3_vz	ground_force_3_px	ground_force_3_py	ground_force_3_pz	ground_force_3_mx	ground_force_3_my	ground_force_3_mz
9.42	4.26801	415.326	-13.156	-0.238449	0.006	-0.455079	0	-0.751075	0	-1.04341	75.2881	8.47006	-0.149094	0.006	-0.844556	0	0.722395	0	0	0	0	0	0	0	0	0	0
9.43	4.1024	414.439	-13.7017	-0.23807	0.006	-0.454864	0	-0.746449	0	-1.09942	75.451	9.06921	-0.149683	0.006	-0.845023	0	0.744292	0	0	0	0	0	0	0	0	0	0
9.44	3.83109	413.817	-14.2201	-0.237644	0.006	-0.454663	0	-0.735024	0	-1.16614	75.6378	9.6901	-0.15029	0.006	-0.84548	0	0.763762	0	0	0	0	0	0	0	0	0	0
9.45	3.45316	413.491	-14.7057	-0.237169	0.006	-0.454476	0	-0.717643	0	-1.24725	75.8403	10.3152	-0.150898	0.006	-0.845908	0	0.780849	0	0	0	0	0	0	0	0	0	0
9.46	2.97734	413.494	-15.1534	-0.236649	0.006	-0.454303	0	-0.695544	0	-1.34667	76.0534	10.9248	-0.151485	0.006	-0.846291	0	0.795657	0	0	0	0	0	0	0	0	0	0
9.47	2.42326	413.87	-15.5584	-0.236093	0.006	-0.454144	0	-0.670384	0	-1.46806	76.2749	11.4986	-0.152036	0.006	-0.84661	0	0.808433	0	0	0	0	0	0	0	0	0	0
9.48	1.82035	414.666	-15.9162	-0.235513	0.006	-0.454	0	-0.644108	0	-1.61406	76.5049	12.0169	-0.152535	0.006	-0.846851	0	0.819556	0	0	0	0	0	0	0	0	0	0
9.49	1.20309	415.928	-16.2235	-0.234927	0.006	-0.453871	0	-0.618646	0	-1.78573	76.7442	12.4625	-0.152965	0.006	-0.847007	0	0.829448	0	0	0	0	0	0	0	0	0	0
9.5	0.605947	417.688	-16.4775	-0.234349	0.006	-0.453755	0	-0.595731	0	-1.98232	76.9929	12.8229	-0.153315	0.006	-0.847073	0	0.838566	0	0	0	0	0	0	0	0	0	0
9.51	0.0599161	419.954	-16.6792	-0.233793	0.006	-0.453653	0	-0.576774	0	-2.20146	77.2479	13.0913	-0.153577	0.006	-0.847051	0	0.847305	0	0	0	0	0	0	0	0	0	0
9.52	-0.4106	422.7	-16.8338	-0.233266	0.006	-0.453564	0	-0.56279	0	-2.43924	77.5012	13.2668	-0.153747	0.006	-0.846951	0	0.855939	0	0	0	0	0	0	0	0	0	0
9.53	-0.790085	425.87	-16.9512	-0.232772	0.006	-0.453485	0	-0.554292	0	-2.69015	77.7398	13.3533	-0.153824	0.006	-0.846788	0	0.864656	0	0	0	0	0	0	0	0	0	0
9.54	-1.0715	429.385	-17.0451	-0.232311	0.006	-0.453414	0	-0.551274	0	-2.94766	77.9462	13.3592	-0.153815	0.006	-0.846578	0	0.873494	0	0	0	0	0	0	0	0	0	0
9.55	-1.25464	433.145	-17.1318	-0.231878	0.006	-0.453347	0	-0.553189	0	-3.20447	78.1002	13.2953	-0.153727	0.006	-0.846344	0	0.882376	0	0	0	0	0	0	0	0	0	0
9.56	-1.34456	437.044	-17.2269	-0.23147	0.006	-0.453281	0	-0.558983	0	-3.45229	78.1804	13.1744	-0.153567	0.006	-0.846106	0	0.891085	0	0	0	0	0	0	0	0	0	0
9.57	-1.35006	440.973	-17.3425	-0.231082	0.006	-0.453214	0	-0.567157	0	-3.68248	78.1667	13.0109	-0.153345	0.006	-0.845881	0	0.89936	0	0	0	0	0	0	0	0	0	0
9.58	-1.28239	444.825	-17.4831	-0.230711	0.006	-0.453146	0	-0.575934	0	-3.88689	78.0443	12.8197	-0.153069	0.006	-0.845685	0	0.906948	0	0	0	0	0	0	0	0	0	0
9.59	-1.15317	448.503	-17.6428	-0.230358	0.006	-0.453077	0	-0.583536	0	-4.05842	77.8071	12.616	-0.152751	0.006	-0.845527	0	0.913465	0	0	0	0	0	0	0	0	0	0
9.6	-0.971512	451.928	-17.8054	-0.230024	0.006	-0.453011	0	-0.58835	0	-4.19212	77.462	12.4137	-0.152402	0.006	-0.845414	0	0.918505	0	0	0	0	0	0	0	0	0	0
9.61	-0.741824	455.046	-17.9486	-0.229715	0.006	-0.452952	0	-0.589131	0	-4.28583	77.0283	12.2241	-0.152033	0.006	-0.845347	0	0.921882	0	0	0	0	0	0	0	0	0	0
9.62	-0.463236	457.822	-18.0491	-0.22944	0.006	-0.452904	0	-0.585086	0	-4.34015	76.5364	12.0558	-0.151659	0.006	-0.845323	0	0.923655	0	0	0	0	0	0	0	0	0	0
9.63	-0.132314	460.24	-18.0886	-0.229206	0.006	-0.452869	0	-0.575895	0	-4.35856	76.0243	11.915	-0.151294	0.006	-0.845337	0	0.924074	0	0	0	0	0	0	0	0	0	0
9.64	0.252402	462.296	-18.0573	-0.229017	0.006	-0.45285	0	-0.561552	0	-4.34741	75.5337	11.8059	-0.150956	0.006	-0.845383	0	0.923507	0	0	0	0	0	0	0	0	0	0
9.65	0.687681	463.993	-17.9567	-0.228876	0.006	-0.452844	0	-0.542244	0	-4.31494	75.1073	11.7313	-0.150663	0.006	-0.845456	0	0.922315	0	0	0	0	0	0	0	0	0	0
9.66	1.16633	465.329	-17.7992	-0.228779	0.006	-0.45285	0	-0.518366	0	-4.26971	74.7859	11.6936	-0.150433	0.006	-0.84555	0	0.920871	0	0	0	0	0	0	0	0	0	0
9.67	1.6783	466.306	-17.6058	-0.228722	0.006	-0.452863	0	-0.490417	0	-4.21934	74.6054	11.6941	-0.150277	0.006	-0.845656	0	0.919505	0	0	0	0	0	0	0	0	0	0
9.68	2.21232	466.926	-17.4008	-0.228696	0.006	-0.452878	0	-0.458946	0	-4.1701	74.5939	11.7337	-0.150201	0.006	-0.845766	0	0.918477	0	0	0	0	0	0	0	0	0	0
9.69	2.75641	467.197	-17.2071	-0.228692	0.006	-0.452892	0	-0.424645	0	-4.12681	74.7705	11.8124	-0.150206	0.006	-0.84587	0	0.917993	0	0	0	0	0	0	0	0	0	0
9.7	3.29656	467.141	-17.0415	-0.2287	0.006	-0.452901	0	-0.388263	0	-4.09316	75.1444	11.9298	-0.15029	0.006	-0.845963	0	0.918207	0	0	0	0	0	0	0	0	0	0
9.71	3.81643	466.793	-16.9126	-0.228709	0.006	-0.452905	0	-0.350606	0	-4.0715	75.7153	12.0845	-0.150448	0.006	-0.846037	0	0.919253	0	0	0	0	0	0	0	0	0	0
9.72	4.29752	466.204	-16.8214	-0.228709	0.006	-0.452903	0	-0.312537	0	-4.06263	76.474	12.2736	-0.150671	0.006	-0.846089	0	0.921266	0	0	0	0	0	0	0	0	0	0
9.73	4.72017	465.441	-16.7638	-0.228692	0.006	-0.452897	0	-0.274896	0	-4.06599	77.4045	12.4929	-0.150947	0.006	-0.84612	0	0.924347	0	0	0	0	0	0	0	0	0	0
9.74	5.06688	464.572	-16.7326	-0.228651	0.006	-0.452886	0	-0.238544	0	-4.0802	78.4863	12.7367	-0.151265	0.006	-0.846131	0	0.928574	0	0	0	0	0	0	0	0	0	0
9.75	5.32672	463.668	-16.7197	-0.228586	0.006	-0.452874	0	-0.204318	0	-4.10369	79.6961	12.9989	-0.151613	0.006	-0.846127	0	0.93405	0	0	0	0	0	0	0	0	0	0
9.76	5.49734	462.787	-16.7174	-0.228497	0.006	-0.452861	0	-0.172991	0	-4.13478	81.0085	13.2731	-0.151979	0.006	-0.846112	0	0.940805	0	0	0	0	0	0	0	0	0	0
9.77	5.58316	461.975	-16.7193	-0.228387	0.006	-0.452849	0	-0.145267	0	-4.17195	82.3971	13.5532	-0.152351	0.006	-0.846095	0	0.948766	0	0	0	0	0	0	0	0	0	0
9.78	5.59209	461.257	-16.7203	-0.228257	0.006	-0.452839	0	-0.121768	0	-4.21365	83.8359	13.8336	-0.152718	0.006	-0.846084	0	0.957763	0	0	0	0	0	0	0	0	0	0
9.79	5.5336	460.638	-16.7178	-0.22811	0.006	-0.452831	0	-0.102949	0	-4.25841	85.3003	14.1098	-0.153072	0.006	-0.846085	0	0.967478	0	0	0	0	0	0	0	0	0	0
9.8	5.41742	460.102	-16.7124	-0.227946	0.006	-0.452826	0	-0.089042	0	-4.30519	86.7667	14.378	-0.153406	0.006	-0.846104	0	0.977394	0	0	0	0	0	0	0	0	0	0
9.81	5.25109	459.623	-16.7077	-0.227762	0.006	-0.452824	0	-0.079966	0	-4.3535	88.2135	14.6353	-0.153713	0.006	-0.846145	0	0.986855	0	0	0	0	0	0	0	0	0	0
9.82	5.03807	459.163	-16.708	-0.227557	0.006	-0.452824	0	-0.075335	0	-4.40306	89.6196	14.8796	-0.153987	0.006	-0.846206	0	0.995189	0	0	0	0	0	0	0	0	0	0
9.83	4.77722	458.688	-16.7171	-0.227325	0.006	-0.452828	0	-0.074528	0	-4.45343	90.9628	15.1084	-0.154224	0.006	-0.846285	0	1.00183	0	0	0	0	0	0	0	0	0	0
9.84	4.46462	458.17	-16.7355	-0.227064	0.006	-0.452835	0	-0.076831	0	-4.50392	92.221	15.319	-0.154421	0.006	-0.846374	0	1.00639	0	0	0	0	0	0	0	0	0	0
9.85	4.09729	457.591	-16.7603	-0.226772	0.006	-0.452845	0	-0.08152	0	-4.55381	93.3746	15.5083	-0.154575	0.006	-0.846468	0	1.0086	0	0	0	0	0	0	0	0	0	0
9.86	3.67647	456.951	-16.7854	-0.226453	0.006	-0.452859	0	-0.087938	0	-4.603	94.4084	15.6737	-0.154683	0.006	-0.846561	0	1.00842	0	0	0	0	0	0	0	0	0	0
9.87	3.21071	456.258	-16.8033	-0.226116	0.006	-0.452877	0	-0.095601	0	-4.65236	95.314	15.8138	-0.154747	0.006	-0.846649	0	1.00601	0	0	0	0	0	0	0	0	0	0
9.88	2.71764	455.526	-16.8073	-0.225774	0.006	-0.452899	0	-0.104304	0	-4.70329	96.0909	15.93	-0.154768	0.006	-0.846732	0	1.00165	0	0	0	0	0	0	0	0	0	0
9.89	2.22201	454.768	-16.7934	-0.225441	0.006	-0.452927	0	-0.114039	0	-4.75716	96.7458	16.0255	-0.154751	0.006	-0.846811	0	0.995655	0	0	0	0	0	0	0	0	0	0
9.9	1.74962	453.989	-16.7609	-0.225136	0.006	-0.45296	0	-0.124889	0	-4.81494	97.2914	16.1059	-0.154702	0.006	-0.846887	0	0.988343	0	0	0	0	0	0	0	0	0	0
9.91	1.32194	453.184	-16.7113	-0.224874	0.006	-0.452999	0	-0.137025	0	-4.8774	97.7452	16.1781	-0.154629	0.006	-0.846965	0	0.979978	0	0	0	0	0	0	0	0	0	0
9.92	0.953696	452.337	-16.6489	-0.224668	0.006	-0.453043	0	-0.150708	0	-4.94528	98.128	16.25	-0.15454	0.006	-0.84705	0	0.970775	0	0	0	0	0	0	0	0	0	0
9.93	0.652325	451.429	-16.5787	-0.224528	0.006	-0.453092	0	-0.166043	0	-5.01949	98.4639	16.3302	-0.154444	0.006	-0.847146	0	0.960833	0	0	0	0	0	0	0	0	0	0
9.94	0.41893	450.443	-16.5062	-0.224463	0.006	-0.453147	0	-0.182936	0	-5.1009	98.7788	16.4271	-0.154349	0.006	-0.847254	0	0.950198	0	0	0	0	0	0	0	0	0	0
9.95	0.24996	449.37	-16.4352	-0.224479	0.006	-0.453205	0	-0.201193	0	-5.18992	99.0996	16.5478	-0.15426	0.006	-0.847379	0	0.9389	0	0	0	0	0	0	0	0	0	0
9.96	0.13962	448.209	-16.3677	-0.224578	0.006	-0.453268	0	-0.220599	0	-5.28688	99.4535	16.6982	-0.154184	0.006	-0.847522	0	0.926943	0	0	0	0	0	0	0	0	0	0
9.97	0.0814674	446.966	-16.3037	-0.224764	0.006	-0.453334	0	-0.240878	0	-5.39244	99.8675	16.8823	-0.154126	0.006	-0.847685	0	0.914502	0	0	0	0	0	0	0	0	0	0
9.98	0.0690641	445.66	-16.2417	-0.225039	0.006	-0.453406	0	-0.261702	0	-5.5075	100.366	17.1022	-0.154102	0.006	-0.84787	0	0.901943	0	0	0	0	0	0	0	0	0	0
9.99	0.0964463	444.314	-16.1807	-0.225402	0.006	-0.453482	0	-0.282653	0	-5.63301	100.972	17.3576	-0.154123	0.006	-0.848077	0	0.889673	0	0	0	0	0	0	0	0	0	0
10	0.158888	442.954	-16.1208	-0.225856	0.006	-0.453561	0	-0.303214	0	-5.77006	101.703	17.6471	-0.154201	0.006	-0.848305	0	0.878141	0	0	0	0	0	0	0	0	0	0
